<?xml version="1.0" standalone="no"?>
<!DOCTYPE svg PUBLIC "-//W3C//DTD SVG 20010904//EN"
 "http://www.w3.org/TR/2001/REC-SVG-20010904/DTD/svg10.dtd">
<svg version="1.0" xmlns="http://www.w3.org/2000/svg"
 width="576.000000pt" height="576.000000pt" viewBox="0 0 576.000000 576.000000"
 preserveAspectRatio="xMidYMid meet">
<metadata>
Created by potrace 1.11, written by Peter Selinger 2001-2013
</metadata>
<g transform="translate(0.000000,576.000000) scale(0.100000,-0.100000)"
fill="#000000" stroke="none">
<path d="M1971 5493 c-47 -17 -131 -92 -131 -117 0 -9 -4 -16 -8 -16 -5 0 -10
-6 -12 -12 -2 -7 -5 -381 -7 -830 l-3 -818 -494 0 c-478 0 -556 -4 -556 -31 0
-5 -6 -9 -14 -9 -17 0 -47 -61 -53 -109 -6 -49 19 -104 64 -138 l36 -28 509
-3 508 -3 0 -199 0 -200 -832 0 c-518 0 -846 -4 -869 -10 -67 -19 -117 -98
-105 -170 7 -48 26 -91 36 -85 5 3 11 -2 14 -11 17 -43 29 -44 916 -44 l840 0
0 -180 0 -181 -147 0 c-82 0 -157 0 -168 1 -11 0 -31 0 -45 -1 -14 0 -31 -1
-37 0 -7 0 -60 0 -118 0 -58 0 -113 0 -122 1 -10 0 -29 0 -43 -1 -14 0 -32 -1
-40 0 -8 0 -72 0 -142 0 -147 0 -183 -10 -224 -65 -33 -43 -41 -117 -18 -164
23 -45 79 -83 127 -86 23 -2 252 -3 509 -3 l468 -1 2 -778 3 -779 30 -49 c56
-89 155 -135 260 -119 47 6 88 32 438 275 76 52 181 125 235 162 53 37 102 71
107 75 6 4 37 26 70 48 33 22 68 47 78 56 10 9 33 25 52 35 19 10 35 22 35 26
0 5 6 8 13 8 7 0 22 8 33 18 10 9 48 37 84 62 36 24 67 48 68 52 2 4 7 8 12 8
7 0 398 267 435 297 6 4 37 26 70 48 33 22 62 42 65 45 3 4 23 17 45 30 22 13
42 27 45 30 3 3 67 48 143 100 126 87 286 198 313 217 5 5 17 13 26 18 25 16
252 173 263 182 6 5 35 25 65 45 70 47 572 394 585 405 6 4 39 28 75 52 164
111 187 128 221 162 73 73 88 200 35 291 -25 44 -46 64 -102 104 -62 44 -217
149 -232 159 -10 6 -19 12 -22 15 -3 3 -16 13 -30 22 -14 10 -59 41 -101 70
-163 114 -351 244 -373 258 -68 44 -151 105 -154 112 -2 4 -7 8 -12 8 -9 0
-303 201 -350 240 -14 11 -30 20 -37 20 -6 0 -13 4 -15 8 -2 6 -77 59 -288
204 -14 10 -34 23 -45 30 -11 7 -22 16 -25 19 -3 4 -19 15 -35 25 -66 41 -550
379 -553 386 -2 4 -7 8 -12 8 -5 0 -62 37 -127 83 -136 96 -280 195 -373 258
-36 24 -67 46 -70 49 -3 3 -51 37 -107 74 -57 38 -108 75 -114 82 -6 8 -15 14
-20 14 -7 0 -233 155 -269 185 -8 7 -40 25 -70 42 -65 35 -141 41 -209 16z
m424 -767 c33 -23 62 -43 65 -46 3 -3 32 -23 65 -45 33 -22 65 -44 72 -50 18
-16 371 -259 394 -271 11 -6 30 -20 43 -30 12 -11 30 -23 38 -29 22 -14 224
-152 273 -187 22 -16 58 -40 80 -55 22 -14 42 -29 45 -32 11 -13 70 -51 79
-51 5 0 11 -4 13 -8 2 -4 53 -42 113 -83 182 -125 299 -207 320 -224 11 -9 37
-26 58 -37 20 -12 37 -25 37 -30 0 -4 4 -8 9 -8 7 0 351 -234 407 -277 5 -4
18 -12 27 -18 27 -17 202 -138 207 -144 3 -3 13 -10 22 -16 58 -34 288 -199
288 -207 0 -5 -13 -17 -30 -26 -16 -9 -30 -20 -30 -24 0 -5 -5 -8 -10 -8 -6 0
-35 -18 -65 -40 -30 -22 -58 -40 -64 -40 -5 0 -11 -4 -13 -8 -1 -5 -32 -29
-68 -54 -36 -24 -110 -75 -165 -113 -55 -38 -120 -83 -145 -100 -25 -17 -74
-51 -110 -75 -36 -25 -66 -48 -68 -52 -2 -5 -10 -8 -17 -8 -7 0 -15 -3 -17 -7
-3 -9 -10 -13 -163 -118 -55 -38 -139 -96 -187 -129 -246 -171 -318 -220 -368
-254 -30 -20 -57 -39 -60 -42 -3 -3 -39 -28 -80 -55 -41 -28 -77 -52 -80 -56
-3 -3 -48 -34 -100 -70 -52 -35 -99 -67 -105 -72 -9 -8 -456 -315 -593 -409
-35 -24 -69 -47 -75 -53 -14 -11 -96 -68 -114 -79 -10 -6 -13 96 -13 493 l0
501 354 0 c388 0 400 2 449 60 67 79 31 213 -64 247 -31 11 -251 16 -636 13
l-103 -1 0 180 0 181 633 2 634 3 37 29 c48 36 67 81 61 141 -5 51 -30 92 -72
121 -27 18 -60 19 -660 22 l-633 3 0 199 0 200 355 0 c396 0 402 1 451 65 21
27 29 50 30 86 3 60 -16 100 -63 137 l-36 27 -369 3 -368 3 0 540 c0 429 3
539 13 533 6 -4 39 -26 72 -48z"/>
</g>
</svg>
